<?xml version="1.0" encoding="us-ascii" standalone="no"?><svg xmlns="http://www.w3.org/2000/svg" xmlns:xlink="http://www.w3.org/1999/xlink" contentStyleType="text/css" height="1246px" preserveAspectRatio="none" style="width:2434px;height:1246px;background:#FFFFFF;" version="1.1" viewBox="0 0 2434 1246" width="2434px" zoomAndPan="magnify"><defs/><g><line style="stroke:#181818;stroke-width:0.5;stroke-dasharray:5.0,5.0;" x1="18" x2="18" y1="82.6094" y2="1164.8047"/><line style="stroke:#181818;stroke-width:0.5;stroke-dasharray:5.0,5.0;" x1="323.5" x2="323.5" y1="82.6094" y2="1164.8047"/><line style="stroke:#181818;stroke-width:0.5;stroke-dasharray:5.0,5.0;" x1="633" x2="633" y1="82.6094" y2="1164.8047"/><line style="stroke:#181818;stroke-width:0.5;stroke-dasharray:5.0,5.0;" x1="935" x2="935" y1="82.6094" y2="1164.8047"/><line style="stroke:#181818;stroke-width:0.5;stroke-dasharray:5.0,5.0;" x1="1138" x2="1138" y1="82.6094" y2="1164.8047"/><line style="stroke:#181818;stroke-width:0.5;stroke-dasharray:5.0,5.0;" x1="1329" x2="1329" y1="82.6094" y2="1164.8047"/><line style="stroke:#181818;stroke-width:0.5;stroke-dasharray:5.0,5.0;" x1="1569.5" x2="1569.5" y1="82.6094" y2="1164.8047"/><line style="stroke:#181818;stroke-width:0.5;stroke-dasharray:5.0,5.0;" x1="1877" x2="1877" y1="82.6094" y2="1164.8047"/><line style="stroke:#181818;stroke-width:0.5;stroke-dasharray:5.0,5.0;" x1="2169.5" x2="2169.5" y1="82.6094" y2="1164.8047"/><text fill="#000000" font-family="sans-serif" font-size="14" lengthAdjust="spacing" textLength="21" x="5" y="79.5332">API</text><ellipse cx="18.5" cy="13.5" fill="#E2E2F0" rx="8" ry="8" style="stroke:#181818;stroke-width:0.5;"/><path d="M18.5,21.5 L18.5,48.5 M5.5,29.5 L31.5,29.5 M18.5,48.5 L5.5,63.5 M18.5,48.5 L31.5,63.5 " fill="none" style="stroke:#181818;stroke-width:0.5;"/><text fill="#000000" font-family="sans-serif" font-size="14" lengthAdjust="spacing" textLength="21" x="5" y="1178.3379">API</text><ellipse cx="18.5" cy="1189.9141" fill="#E2E2F0" rx="8" ry="8" style="stroke:#181818;stroke-width:0.5;"/><path d="M18.5,1197.9141 L18.5,1224.9141 M5.5,1205.9141 L31.5,1205.9141 M18.5,1224.9141 L5.5,1239.9141 M18.5,1224.9141 L31.5,1239.9141 " fill="none" style="stroke:#181818;stroke-width:0.5;"/><rect fill="#E2E2F0" height="31.6094" rx="2.5" ry="2.5" style="stroke:#181818;stroke-width:0.5;" width="144" x="251.5" y="50"/><text fill="#000000" font-family="sans-serif" font-size="14" lengthAdjust="spacing" textLength="130" x="258.5" y="71.5332">get_missing_params</text><rect fill="#E2E2F0" height="31.6094" rx="2.5" ry="2.5" style="stroke:#181818;stroke-width:0.5;" width="144" x="251.5" y="1163.8047"/><text fill="#000000" font-family="sans-serif" font-size="14" lengthAdjust="spacing" textLength="130" x="258.5" y="1185.3379">get_missing_params</text><rect fill="#E2E2F0" height="31.6094" rx="2.5" ry="2.5" style="stroke:#181818;stroke-width:0.5;" width="321" x="473" y="50"/><text fill="#000000" font-family="sans-serif" font-size="14" lengthAdjust="spacing" textLength="307" x="480" y="71.5332">getreqiured_params_for_quote_ssic_submission</text><rect fill="#E2E2F0" height="31.6094" rx="2.5" ry="2.5" style="stroke:#181818;stroke-width:0.5;" width="321" x="473" y="1163.8047"/><text fill="#000000" font-family="sans-serif" font-size="14" lengthAdjust="spacing" textLength="307" x="480" y="1185.3379">getreqiured_params_for_quote_ssic_submission</text><rect fill="#E2E2F0" height="31.6094" rx="2.5" ry="2.5" style="stroke:#181818;stroke-width:0.5;" width="263" x="804" y="50"/><text fill="#000000" font-family="sans-serif" font-size="14" lengthAdjust="spacing" textLength="249" x="811" y="71.5332">convert_date_string_to_specific_format</text><rect fill="#E2E2F0" height="31.6094" rx="2.5" ry="2.5" style="stroke:#181818;stroke-width:0.5;" width="263" x="804" y="1163.8047"/><text fill="#000000" font-family="sans-serif" font-size="14" lengthAdjust="spacing" textLength="249" x="811" y="1185.3379">convert_date_string_to_specific_format</text><rect fill="#E2E2F0" height="31.6094" rx="2.5" ry="2.5" style="stroke:#181818;stroke-width:0.5;" width="122" x="1077" y="50"/><text fill="#000000" font-family="sans-serif" font-size="14" lengthAdjust="spacing" textLength="108" x="1084" y="71.5332">validate_vehicles</text><rect fill="#E2E2F0" height="31.6094" rx="2.5" ry="2.5" style="stroke:#181818;stroke-width:0.5;" width="122" x="1077" y="1163.8047"/><text fill="#000000" font-family="sans-serif" font-size="14" lengthAdjust="spacing" textLength="108" x="1084" y="1185.3379">validate_vehicles</text><rect fill="#E2E2F0" height="31.6094" rx="2.5" ry="2.5" style="stroke:#181818;stroke-width:0.5;" width="114" x="1272" y="50"/><text fill="#000000" font-family="sans-serif" font-size="14" lengthAdjust="spacing" textLength="100" x="1279" y="71.5332">validate_drivers</text><rect fill="#E2E2F0" height="31.6094" rx="2.5" ry="2.5" style="stroke:#181818;stroke-width:0.5;" width="114" x="1272" y="1163.8047"/><text fill="#000000" font-family="sans-serif" font-size="14" lengthAdjust="spacing" textLength="100" x="1279" y="1185.3379">validate_drivers</text><rect fill="#E2E2F0" height="31.6094" rx="2.5" ry="2.5" style="stroke:#181818;stroke-width:0.5;" width="181" x="1479.5" y="50"/><text fill="#000000" font-family="sans-serif" font-size="14" lengthAdjust="spacing" textLength="167" x="1486.5" y="71.5332">get_state_city_by_zipcode</text><rect fill="#E2E2F0" height="31.6094" rx="2.5" ry="2.5" style="stroke:#181818;stroke-width:0.5;" width="181" x="1479.5" y="1163.8047"/><text fill="#000000" font-family="sans-serif" font-size="14" lengthAdjust="spacing" textLength="167" x="1486.5" y="1185.3379">get_state_city_by_zipcode</text><rect fill="#E2E2F0" height="31.6094" rx="2.5" ry="2.5" style="stroke:#181818;stroke-width:0.5;" width="240" x="1757" y="50"/><text fill="#000000" font-family="sans-serif" font-size="14" lengthAdjust="spacing" textLength="226" x="1764" y="71.5332">get_agency_commission_if_present</text><rect fill="#E2E2F0" height="31.6094" rx="2.5" ry="2.5" style="stroke:#181818;stroke-width:0.5;" width="240" x="1757" y="1163.8047"/><text fill="#000000" font-family="sans-serif" font-size="14" lengthAdjust="spacing" textLength="226" x="1764" y="1185.3379">get_agency_commission_if_present</text><rect fill="#E2E2F0" height="31.6094" rx="2.5" ry="2.5" style="stroke:#181818;stroke-width:0.5;" width="139" x="2100.5" y="50"/><text fill="#000000" font-family="sans-serif" font-size="14" lengthAdjust="spacing" textLength="125" x="2107.5" y="71.5332">finalise_commission</text><rect fill="#E2E2F0" height="31.6094" rx="2.5" ry="2.5" style="stroke:#181818;stroke-width:0.5;" width="139" x="2100.5" y="1163.8047"/><text fill="#000000" font-family="sans-serif" font-size="14" lengthAdjust="spacing" textLength="125" x="2107.5" y="1185.3379">finalise_commission</text><polygon fill="#181818" points="311.5,110.9609,321.5,114.9609,311.5,118.9609,315.5,114.9609" style="stroke:#181818;stroke-width:1.0;"/><line style="stroke:#181818;stroke-width:1.0;" x1="18.5" x2="317.5" y1="114.9609" y2="114.9609"/><text fill="#000000" font-family="sans-serif" font-size="13" lengthAdjust="spacing" textLength="281" x="25.5" y="110.1045">get_missing_params(data, required_params_list)</text><polygon fill="#181818" points="621.5,141.3125,631.5,145.3125,621.5,149.3125,625.5,145.3125" style="stroke:#181818;stroke-width:1.0;"/><line style="stroke:#181818;stroke-width:1.0;" x1="323.5" x2="627.5" y1="145.3125" y2="145.3125"/><text fill="#000000" font-family="sans-serif" font-size="13" lengthAdjust="spacing" textLength="286" x="330.5" y="140.4561">getreqiured_params_for_quote_ssic_submission()</text><line style="stroke:#181818;stroke-width:1.0;" x1="323.5" x2="365.5" y1="175.6641" y2="175.6641"/><line style="stroke:#181818;stroke-width:1.0;" x1="365.5" x2="365.5" y1="175.6641" y2="188.6641"/><line style="stroke:#181818;stroke-width:1.0;" x1="324.5" x2="365.5" y1="188.6641" y2="188.6641"/><polygon fill="#181818" points="334.5,184.6641,324.5,188.6641,334.5,192.6641,330.5,188.6641" style="stroke:#181818;stroke-width:1.0;"/><text fill="#000000" font-family="sans-serif" font-size="13" lengthAdjust="spacing" textLength="192" x="330.5" y="170.8076">for param in required_params_list</text><line style="stroke:#181818;stroke-width:1.0;" x1="323.5" x2="365.5" y1="219.0156" y2="219.0156"/><line style="stroke:#181818;stroke-width:1.0;" x1="365.5" x2="365.5" y1="219.0156" y2="232.0156"/><line style="stroke:#181818;stroke-width:1.0;" x1="324.5" x2="365.5" y1="232.0156" y2="232.0156"/><polygon fill="#181818" points="334.5,228.0156,324.5,232.0156,334.5,236.0156,330.5,232.0156" style="stroke:#181818;stroke-width:1.0;"/><text fill="#000000" font-family="sans-serif" font-size="13" lengthAdjust="spacing" textLength="155" x="330.5" y="214.1592">if data.get(param) == None</text><line style="stroke:#181818;stroke-width:1.0;" x1="323.5" x2="365.5" y1="262.3672" y2="262.3672"/><line style="stroke:#181818;stroke-width:1.0;" x1="365.5" x2="365.5" y1="262.3672" y2="275.3672"/><line style="stroke:#181818;stroke-width:1.0;" x1="324.5" x2="365.5" y1="275.3672" y2="275.3672"/><polygon fill="#181818" points="334.5,271.3672,324.5,275.3672,334.5,279.3672,330.5,275.3672" style="stroke:#181818;stroke-width:1.0;"/><text fill="#000000" font-family="sans-serif" font-size="13" lengthAdjust="spacing" textLength="167" x="330.5" y="257.5107">missing_data.append(param)</text><polygon fill="#181818" points="29.5,301.7188,19.5,305.7188,29.5,309.7188,25.5,305.7188" style="stroke:#181818;stroke-width:1.0;"/><line style="stroke:#181818;stroke-width:1.0;stroke-dasharray:2.0,2.0;" x1="23.5" x2="322.5" y1="305.7188" y2="305.7188"/><text fill="#000000" font-family="sans-serif" font-size="13" lengthAdjust="spacing" textLength="114" x="35.5" y="300.8623">return missing_data</text><polygon fill="#181818" points="923.5,332.0703,933.5,336.0703,923.5,340.0703,927.5,336.0703" style="stroke:#181818;stroke-width:1.0;"/><line style="stroke:#181818;stroke-width:1.0;" x1="18.5" x2="929.5" y1="336.0703" y2="336.0703"/><text fill="#000000" font-family="sans-serif" font-size="13" lengthAdjust="spacing" textLength="430" x="25.5" y="331.2139">convert_date_string_to_specific_format(input_date, from_format, to_format)</text><line style="stroke:#181818;stroke-width:1.0;" x1="935.5" x2="977.5" y1="366.4219" y2="366.4219"/><line style="stroke:#181818;stroke-width:1.0;" x1="977.5" x2="977.5" y1="366.4219" y2="379.4219"/><line style="stroke:#181818;stroke-width:1.0;" x1="936.5" x2="977.5" y1="379.4219" y2="379.4219"/><polygon fill="#181818" points="946.5,375.4219,936.5,379.4219,946.5,383.4219,942.5,379.4219" style="stroke:#181818;stroke-width:1.0;"/><text fill="#000000" font-family="sans-serif" font-size="13" lengthAdjust="spacing" textLength="115" x="942.5" y="361.5654">try parse input_date</text><line style="stroke:#181818;stroke-width:1.0;" x1="935.5" x2="977.5" y1="409.7734" y2="409.7734"/><line style="stroke:#181818;stroke-width:1.0;" x1="977.5" x2="977.5" y1="409.7734" y2="422.7734"/><line style="stroke:#181818;stroke-width:1.0;" x1="936.5" x2="977.5" y1="422.7734" y2="422.7734"/><polygon fill="#181818" points="946.5,418.7734,936.5,422.7734,946.5,426.7734,942.5,422.7734" style="stroke:#181818;stroke-width:1.0;"/><text fill="#000000" font-family="sans-serif" font-size="13" lengthAdjust="spacing" textLength="128" x="942.5" y="404.917">if fail, use current date</text><polygon fill="#181818" points="29.5,449.125,19.5,453.125,29.5,457.125,25.5,453.125" style="stroke:#181818;stroke-width:1.0;"/><line style="stroke:#181818;stroke-width:1.0;stroke-dasharray:2.0,2.0;" x1="23.5" x2="934.5" y1="453.125" y2="453.125"/><text fill="#000000" font-family="sans-serif" font-size="13" lengthAdjust="spacing" textLength="120" x="35.5" y="448.2686">return formatted date</text><polygon fill="#181818" points="1126,479.4766,1136,483.4766,1126,487.4766,1130,483.4766" style="stroke:#181818;stroke-width:1.0;"/><line style="stroke:#181818;stroke-width:1.0;" x1="18.5" x2="1132" y1="483.4766" y2="483.4766"/><text fill="#000000" font-family="sans-serif" font-size="13" lengthAdjust="spacing" textLength="235" x="25.5" y="478.6201">validate_vehicles(vehicles, data, isCargo)</text><line style="stroke:#181818;stroke-width:1.0;" x1="1138" x2="1180" y1="513.8281" y2="513.8281"/><line style="stroke:#181818;stroke-width:1.0;" x1="1180" x2="1180" y1="513.8281" y2="526.8281"/><line style="stroke:#181818;stroke-width:1.0;" x1="1139" x2="1180" y1="526.8281" y2="526.8281"/><polygon fill="#181818" points="1149,522.8281,1139,526.8281,1149,530.8281,1145,526.8281" style="stroke:#181818;stroke-width:1.0;"/><text fill="#000000" font-family="sans-serif" font-size="13" lengthAdjust="spacing" textLength="87" x="1145" y="508.9717">for v in vehicles</text><line style="stroke:#181818;stroke-width:1.0;" x1="1138" x2="1180" y1="557.1797" y2="557.1797"/><line style="stroke:#181818;stroke-width:1.0;" x1="1180" x2="1180" y1="557.1797" y2="570.1797"/><line style="stroke:#181818;stroke-width:1.0;" x1="1139" x2="1180" y1="570.1797" y2="570.1797"/><polygon fill="#181818" points="1149,566.1797,1139,570.1797,1149,574.1797,1145,570.1797" style="stroke:#181818;stroke-width:1.0;"/><text fill="#000000" font-family="sans-serif" font-size="13" lengthAdjust="spacing" textLength="177" x="1145" y="552.3232">check year, make, model, etc.</text><polygon fill="#181818" points="29.5,596.5313,19.5,600.5313,29.5,604.5313,25.5,600.5313" style="stroke:#181818;stroke-width:1.0;"/><line style="stroke:#181818;stroke-width:1.0;stroke-dasharray:2.0,2.0;" x1="23.5" x2="1137" y1="600.5313" y2="600.5313"/><text fill="#000000" font-family="sans-serif" font-size="13" lengthAdjust="spacing" textLength="122" x="35.5" y="595.6748">return validation_data</text><polygon fill="#181818" points="1317,626.8828,1327,630.8828,1317,634.8828,1321,630.8828" style="stroke:#181818;stroke-width:1.0;"/><line style="stroke:#181818;stroke-width:1.0;" x1="18.5" x2="1323" y1="630.8828" y2="630.8828"/><text fill="#000000" font-family="sans-serif" font-size="13" lengthAdjust="spacing" textLength="132" x="25.5" y="626.0264">validate_drivers(drivers)</text><line style="stroke:#181818;stroke-width:1.0;" x1="1329" x2="1371" y1="661.2344" y2="661.2344"/><line style="stroke:#181818;stroke-width:1.0;" x1="1371" x2="1371" y1="661.2344" y2="674.2344"/><line style="stroke:#181818;stroke-width:1.0;" x1="1330" x2="1371" y1="674.2344" y2="674.2344"/><polygon fill="#181818" points="1340,670.2344,1330,674.2344,1340,678.2344,1336,674.2344" style="stroke:#181818;stroke-width:1.0;"/><text fill="#000000" font-family="sans-serif" font-size="13" lengthAdjust="spacing" textLength="89" x="1336" y="656.3779">for drv in drivers</text><line style="stroke:#181818;stroke-width:1.0;" x1="1329" x2="1371" y1="704.5859" y2="704.5859"/><line style="stroke:#181818;stroke-width:1.0;" x1="1371" x2="1371" y1="704.5859" y2="717.5859"/><line style="stroke:#181818;stroke-width:1.0;" x1="1330" x2="1371" y1="717.5859" y2="717.5859"/><polygon fill="#181818" points="1340,713.5859,1330,717.5859,1340,721.5859,1336,717.5859" style="stroke:#181818;stroke-width:1.0;"/><text fill="#000000" font-family="sans-serif" font-size="13" lengthAdjust="spacing" textLength="227" x="1336" y="699.7295">check name, license state, tenure, etc.</text><polygon fill="#181818" points="29.5,743.9375,19.5,747.9375,29.5,751.9375,25.5,747.9375" style="stroke:#181818;stroke-width:1.0;"/><line style="stroke:#181818;stroke-width:1.0;stroke-dasharray:2.0,2.0;" x1="23.5" x2="1328" y1="747.9375" y2="747.9375"/><text fill="#000000" font-family="sans-serif" font-size="13" lengthAdjust="spacing" textLength="122" x="35.5" y="743.0811">return validation_data</text><polygon fill="#181818" points="1558,774.2891,1568,778.2891,1558,782.2891,1562,778.2891" style="stroke:#181818;stroke-width:1.0;"/><line style="stroke:#181818;stroke-width:1.0;" x1="18.5" x2="1564" y1="778.2891" y2="778.2891"/><text fill="#000000" font-family="sans-serif" font-size="13" lengthAdjust="spacing" textLength="208" x="25.5" y="773.4326">get_state_city_by_zipcode(zipcode)</text><line style="stroke:#181818;stroke-width:1.0;" x1="1570" x2="1612" y1="808.6406" y2="808.6406"/><line style="stroke:#181818;stroke-width:1.0;" x1="1612" x2="1612" y1="808.6406" y2="821.6406"/><line style="stroke:#181818;stroke-width:1.0;" x1="1571" x2="1612" y1="821.6406" y2="821.6406"/><polygon fill="#181818" points="1581,817.6406,1571,821.6406,1581,825.6406,1577,821.6406" style="stroke:#181818;stroke-width:1.0;"/><text fill="#000000" font-family="sans-serif" font-size="13" lengthAdjust="spacing" textLength="126" x="1577" y="803.7842">pad zipcode if needed</text><line style="stroke:#181818;stroke-width:1.0;" x1="1570" x2="1612" y1="851.9922" y2="851.9922"/><line style="stroke:#181818;stroke-width:1.0;" x1="1612" x2="1612" y1="851.9922" y2="864.9922"/><line style="stroke:#181818;stroke-width:1.0;" x1="1571" x2="1612" y1="864.9922" y2="864.9922"/><polygon fill="#181818" points="1581,860.9922,1571,864.9922,1581,868.9922,1577,864.9922" style="stroke:#181818;stroke-width:1.0;"/><text fill="#000000" font-family="sans-serif" font-size="13" lengthAdjust="spacing" textLength="293" x="1577" y="847.1357">db query udf_get_state_city_territory_with_zipcode</text><polygon fill="#181818" points="29.5,891.3438,19.5,895.3438,29.5,899.3438,25.5,895.3438" style="stroke:#181818;stroke-width:1.0;"/><line style="stroke:#181818;stroke-width:1.0;stroke-dasharray:2.0,2.0;" x1="23.5" x2="1569" y1="895.3438" y2="895.3438"/><text fill="#000000" font-family="sans-serif" font-size="13" lengthAdjust="spacing" textLength="91" x="35.5" y="890.4873">return state/city</text><polygon fill="#181818" points="1865,921.6953,1875,925.6953,1865,929.6953,1869,925.6953" style="stroke:#181818;stroke-width:1.0;"/><line style="stroke:#181818;stroke-width:1.0;" x1="18.5" x2="1871" y1="925.6953" y2="925.6953"/><text fill="#000000" font-family="sans-serif" font-size="13" lengthAdjust="spacing" textLength="467" x="25.5" y="920.8389">get_agency_commission_if_present(app_id, agency_id, effective_date, exp_date)</text><line style="stroke:#181818;stroke-width:1.0;" x1="1877" x2="1919" y1="956.0469" y2="956.0469"/><line style="stroke:#181818;stroke-width:1.0;" x1="1919" x2="1919" y1="956.0469" y2="969.0469"/><line style="stroke:#181818;stroke-width:1.0;" x1="1878" x2="1919" y1="969.0469" y2="969.0469"/><polygon fill="#181818" points="1888,965.0469,1878,969.0469,1888,973.0469,1884,969.0469" style="stroke:#181818;stroke-width:1.0;"/><text fill="#000000" font-family="sans-serif" font-size="13" lengthAdjust="spacing" textLength="279" x="1884" y="951.1904">db query get_agency_commission_from_agency</text><polygon fill="#181818" points="29.5,995.3984,19.5,999.3984,29.5,1003.3984,25.5,999.3984" style="stroke:#181818;stroke-width:1.0;"/><line style="stroke:#181818;stroke-width:1.0;stroke-dasharray:2.0,2.0;" x1="23.5" x2="1876" y1="999.3984" y2="999.3984"/><text fill="#000000" font-family="sans-serif" font-size="13" lengthAdjust="spacing" textLength="107" x="35.5" y="994.542">return commission</text><polygon fill="#181818" points="2158,1025.75,2168,1029.75,2158,1033.75,2162,1029.75" style="stroke:#181818;stroke-width:1.0;"/><line style="stroke:#181818;stroke-width:1.0;" x1="18.5" x2="2164" y1="1029.75" y2="1029.75"/><text fill="#000000" font-family="sans-serif" font-size="13" lengthAdjust="spacing" textLength="306" x="25.5" y="1024.8936">finalise_commission(comm_obj, transaction_type_id)</text><line style="stroke:#181818;stroke-width:1.0;" x1="2170" x2="2212" y1="1060.1016" y2="1060.1016"/><line style="stroke:#181818;stroke-width:1.0;" x1="2212" x2="2212" y1="1060.1016" y2="1073.1016"/><line style="stroke:#181818;stroke-width:1.0;" x1="2171" x2="2212" y1="1073.1016" y2="1073.1016"/><polygon fill="#181818" points="2181,1069.1016,2171,1073.1016,2181,1077.1016,2177,1073.1016" style="stroke:#181818;stroke-width:1.0;"/><text fill="#000000" font-family="sans-serif" font-size="13" lengthAdjust="spacing" textLength="250" x="2177" y="1055.2451">check agency/company/global commission</text><line style="stroke:#181818;stroke-width:1.0;" x1="2170" x2="2212" y1="1103.4531" y2="1103.4531"/><line style="stroke:#181818;stroke-width:1.0;" x1="2212" x2="2212" y1="1103.4531" y2="1116.4531"/><line style="stroke:#181818;stroke-width:1.0;" x1="2171" x2="2212" y1="1116.4531" y2="1116.4531"/><polygon fill="#181818" points="2181,1112.4531,2171,1116.4531,2181,1120.4531,2177,1116.4531" style="stroke:#181818;stroke-width:1.0;"/><text fill="#000000" font-family="sans-serif" font-size="13" lengthAdjust="spacing" textLength="159" x="2177" y="1098.5967">pick by transaction_type_id</text><polygon fill="#181818" points="29.5,1142.8047,19.5,1146.8047,29.5,1150.8047,25.5,1146.8047" style="stroke:#181818;stroke-width:1.0;"/><line style="stroke:#181818;stroke-width:1.0;stroke-dasharray:2.0,2.0;" x1="23.5" x2="2169" y1="1146.8047" y2="1146.8047"/><text fill="#000000" font-family="sans-serif" font-size="13" lengthAdjust="spacing" textLength="132" x="35.5" y="1141.9482">return commission dict</text><!--SRC=[ZLLDRvmm4BtpAqOvWKIJ-qgf52MAr4Ehg9LowCNosiF6pM9OOxQblxxZ3m8Oaku9QvZtF6- -p8Lj3DmzVSbQRgmIgkNQmjK1BQjLrobzOFI3rzqLy0w-1jEJjwmG1a-gDoWZWbMDOQU-iSW89LZNxprbeptNTpprYhoto4IZpsWiazo1hN5Xs8PrBGfL4HKnrznwcWTokG_kIuupFogFF-EB4aSC2fwZzJaQty58euXn2Na8jdMYEkiWGjc1xGVsLxMYaUYXFrNxm_rSO_W1jHYOQEgO4wOgrXhiK0TTTzxXdlulmPNI54-7CwZtVunsZu2CAWgVFYyBjeDrMNDInaimiHXZwOZ95ja2xUYMDVDy5nSzt-1BmYCiU1fGUZEa_p80g0gSf6iABVV80cvluLkZyG8mm9WTpy7R5hMCD2cSy9Ja7SLfUwCNm2d_i-xSmMLTdIlTzi6fXCeqTRINGBxXM6GptjKrrWmkYnt2nFGXW59MSNKieIUCw8sX7eGrAX4SGh4eW-kRv7J2Th2Qn7myb13QJtNtt1oQ8al1suIkJywkHqQU2t40uWN5Amp8JGarVwKCrpIh91sjkDvWIJH79MvSbtLETiHCSzmaUVnE4gFh9je9bCPBZBYBOAC-pMjITbG2DLNKhoVg7jGqfudIDxPBXOuRBUoIpSsNns-HZSvBOCibH1VNUXfHedp7L-xXr2CrT2yhbjneqHX5hzV0VYlxCju-8qeqUUYDWqvofYqR17sqbdDQ1qp94gAJEs9LeR2KmpYl-AVrfoARcDDxtZHjN-X7FfWN98cQ2J6fcRy1r4Jhbo9tHzRiVr4x6AuxBdo9xT0YoIcoES6QC3HN2Es6cEX16cuEnsRFZ_DmFYPf5N7iXwtx4-IxWa4gOJFu1m00]--></g></svg>